<svg xmlns="http://www.w3.org/2000/svg" viewBox="0 0 260 100" width="300">
      <g fill="none" fill-rule="evenodd">
        <path fill="#FFF" d="M39.728 61.896c0 4.8960245-2.2319777 8.5199882-6.696 10.872-2.1600108 1.1520058-5.2559798 1.8719986-9.288 2.16-1.1040055.0480002-4.3679729.072-9.792.072H5.168c-.81600408 0-1.224-.2159978-1.224-.648s.74399256-.648 2.232-.648c1.72800864 0 2.74799844-.1799982 3.06-.54.31200156-.3600018.468-1.4519909.468-3.276V30.936c0-2.1120106-.09599904-3.3359983-.288-3.672-.33600168-.5760029-1.55998944-.8879998-3.672-.936-1.29600648 0-1.944-.2399976-1.944-.72 0-.4320022.599994-.648 1.8-.648h.864c.52800264.0480002 1.00799784.072 1.44.072l14.04.144c5.1840259.0480002 9.0479873.9119916 11.592 2.592C36.5120149 29.7360098 38 32.5919813 38 36.336c0 3.2640163-1.2239878 5.9399896-3.672 8.028-2.4480122 2.0880104-5.8799779 3.3959974-10.296 3.924v.432c4.3680218.2880014 7.7759878 1.1999923 10.224 2.736 3.6480182 2.3040115 5.472 5.7839767 5.472 10.44zm-9.648-24.84c0-4.608023-1.0559894-7.6799923-3.168-9.216-1.1040055-.8160041-3.1919846-1.224-6.264-1.224-.8160041 0-2.0879914.0719993-3.816.216v20.88h.648l3.96-.144c2.7360137-.0960005 4.8599924-1.0679908 6.372-2.916 1.5120076-1.8480092 2.268-4.3799839 2.268-7.596zm2.088 24.048c0-6.0480302-2.4479755-9.7919928-7.344-11.232-1.4400072-.4320022-4.1039806-.648-7.992-.648V70.68c0 1.392007.1439986 2.183999.432 2.376.4800024.3360017 1.823989.504 4.032.504 3.3120166 0 5.9519902-1.0559894 7.92-3.168s2.952-5.2079796 2.952-9.288zm51.933 2.232c0 .192001-.0479995 1.3679892-.144 3.528-.0960005 2.1600108-.144 4.2239902-.144 6.192v2.376c-4.7040235-.2400012-14.0159304-.36-27.936-.36-1.6800084 0-3.3359919.0239998-4.968.072h-4.032c-.9120046 0-1.368-.2159978-1.368-.648 0-.2880014.1439985-.4559998.432-.504.1440007 0 1.0559916-.0719993 2.736-.216 1.2480062-.0960005 2.0039987-.3599978 2.268-.792.2640013-.4320022.396-1.5599909.396-3.384V29.136c0-1.392007-.203998-2.2199987-.612-2.484-.4080021-.2640013-1.715989-.396-3.924-.396-.7680039 0-1.152-.2159978-1.152-.648s.5279947-.648 1.584-.648l12.312.072c.4320021 0 3.143975-.0239998 8.136-.072h10.08c1.4400072 0 2.759994-.095999 3.96-.288.0960005 2.0640103.3119983 4.9199818.648 8.568l.288 3.096c.0480002.2400012.072.5519981.072.936 0 .4800024-.2159979.72-.648.72-.5280027 0-.9119988-.599994-1.152-1.8-.9120046-4.3200216-2.3999897-7.0559942-4.464-8.208-1.5360077-.8640043-5.5679674-1.296-12.096-1.296h-5.904v21.096h1.728c5.3760269 0 8.6519941-.4079959 9.828-1.224 1.1760059-.8160041 1.9799978-3.1919803 2.412-7.128.0960005-1.008005.3599978-1.512.792-1.512.5280026 0 .792.4319957.792 1.296 0 .8640043-.0479995 2.1359916-.144 3.816-.0960005 1.6800084-.144 2.9519957-.144 3.816 0 5.1360257.095999 8.6639904.288 10.584.0480002.4800024.072.8879983.072 1.224 0 .6240031-.2639974.936-.792.936-.3360017 0-.5639994-.203998-.684-.612-.1200006-.408002-.3239986-1.7399887-.612-3.996-.3840019-2.8320142-1.5599902-4.5839966-3.528-5.256-.8640043-.2880014-3.1199818-.432-6.768-.432h-3.24v24.192c10.5600528 0 16.7519909-.2159978 18.576-.648 3.1680158-.7200036 4.9679978-3.7919729 5.4-9.216.0960005-1.200006.4079973-1.8.936-1.8.4800024 0 .72.503995.72 1.512zm44.733 9.504c0 2.0160101-1.679983 3.024-5.04 3.024-3.744019 0-6.671989-1.5599844-8.784-4.68-.912005-1.3440067-1.499999-2.6399938-1.764-3.888-.264001-1.2480062-.659997-4.4159746-1.188-9.504-.288001-3.0720154-1.271992-5.2439936-2.952-6.516-1.680008-1.2720064-4.415981-1.9559995-8.208-2.052v22.68c0 .9600048.767992 1.5599988 2.304 1.8.432002.0480002 1.535991.0959998 3.312.144.624003 0 .936.1919981.936.576 0 .4320022-.407996.648-1.224.648h-.864c-.432002-.0480002-2.519981-.072-6.264-.072-.7200036 0-1.9439914.0239998-3.672.072h-6.12c-1.0560053 0-1.584-.2159978-1.584-.648 0-.3360017.695993-.5279998 2.088-.576 2.2560112-.0480002 3.479999-.3359974 3.672-.864.1920009-.2400012.288-1.1759918.288-2.808V30.432c0-1.9200096-.203998-3.0719981-.612-3.456-.4080021-.3840019-1.6439897-.5999998-3.708-.648-1.200006 0-1.8-.2159978-1.8-.648 0-.4800024.3839961-.72 1.152-.72.1440007 0 .3599985.0239998.648.072l9.576.216c.9600048 0 2.303991-.0239998 4.032-.072 1.92001-.0960005 3.263996-.144 4.032-.144 4.464022 0 8.003987.99599 10.62 2.988 2.616013 1.99201 3.924 4.691983 3.924 8.1 0 3.3600168-1.343987 6.1319891-4.032 8.316-2.688013 2.1840109-6.335977 3.4679981-10.944 3.852-.432002.0480002-.672.1199995-.72.216 0 .192001.239998.288.72.288 5.040025.8640043 8.50799 2.6279867 10.404 5.292 1.896009 2.6640133 3.155997 7.4759652 3.78 14.436.384002 3.9360197 1.727988 5.904 4.032 5.904.720004 0 1.08-.1439986 1.08-.432 0-.0480002-.024-.0959998-.072-.144-.240001-.5280026-.36-.9599983-.36-1.296 0-1.008005.527995-1.512 1.584-1.512 1.152006 0 1.728.599994 1.728 1.8zM113.93 36.768c0-6.8640343-2.97597-10.296-8.928-10.296-1.584008 0-2.663997.2159978-3.24.648s-.864 1.1999945-.864 2.304v18.288c4.608023.0480002 7.93199-.7919914 9.972-2.52 2.04001-1.7280086 3.06-4.5359806 3.06-8.424zm54.957 32.544c0 1.2480062-.071999 3.3119856-.216 6.192h-.792c-.288002 0-.983995-.0479995-2.088-.144-1.104006-.0960005-2.351993-.144-3.744-.144L132.095 75c-.816004 0-1.224-.2159978-1.224-.648 0-.3360017.647993-.5519995 1.944-.648 1.824009-.0960005 2.915998-.2999984 3.276-.612.360002-.3120016.54-1.2119926.54-2.7V29.928c0-1.7760089-.179998-2.8079986-.54-3.096-.360002-.2880014-1.643989-.432-3.852-.432-.912005 0-1.368-.2639974-1.368-.792 0-.4320022.287997-.648.864-.648h.648c1.584008.1440007 4.727976.216 9.432.216.432002 0 1.271994-.0359996 2.52-.108 1.248006-.0720004 2.279996-.108 3.096-.108h.792c.864004 0 1.296.2399976 1.296.72 0 .2880014-.131999.4679996-.396.54-.264001.0720004-1.091993.1319998-2.484.18-1.392007.0480002-2.219999.275998-2.484.684-.264001.408002-.396 1.6679894-.396 3.78v42.48c1.296006.0480002 3.095988.072 5.4.072 5.616028 0 9.575988-.2879971 11.88-.864 2.304011-.5760029 3.863996-1.6559921 4.68-3.24.816004-1.5840079 1.295999-3.7199866 1.44-6.408.048-.6240031.335997-.936.864-.936.624003 0 .912.3599964.864 1.08l-.072 1.8v.648c.048.3360017.072.6719983.072 1.008v2.808zm21.909 5.112c0 .3840019-.287997.576-.864.576h-.72c-.288002-.1440007-3.551969-.216-9.792-.216-1.200006 0-2.399994.0479995-3.6.144-.624003.0480002-1.583994.072-2.88.072-.624003 0-.936-.2159978-.936-.648 0-.3840019.623994-.5999998 1.872-.648 1.92001-.0480002 3.047998-.275998 3.384-.684.336002-.408002.504-1.7879882.504-4.14V31.008c0-2.3520118-.119999-3.6719986-.36-3.96-.288002-.4800024-1.607988-.7679995-3.96-.864-.912005-.0480002-1.368-.2399983-1.368-.576 0-.4320022.287997-.648.864-.648l9.72.144c.720004 0 2.11199-.0239998 4.176-.072l2.736-.072c.768004 0 1.152.2159978 1.152.648 0 .3840019-1.05599.6239995-3.168.72-1.200006.0480002-1.931999.2639981-2.196.648-.264001.3840019-.396 1.3919918-.396 3.024v38.448c0 2.7360137.119999 4.2239988.36 4.464.528003.5280026 2.087987.8399995 4.68.936.528003 0 .792.1919981.792.576zm56.181 0c0 .4800024-.503995.72-1.512.72h-.792c-.672003 0-1.895991-.0239998-3.672-.072-1.776009-.0480002-3.143995-.072-4.104-.072-1.440007 0-3.119991.0239998-5.04.072h-4.392c-1.008005 0-1.512-.2159978-1.512-.648 0-.4800024.695993-.72 2.088-.72 2.448012 0 3.935997-.2639974 4.464-.792.240001-.2400012.36-1.8479851.36-4.824V30.792c0 .0480002-.263997.8879918-.792 2.52-1.92001 5.808029-4.703982 14.5439417-8.352 26.208l-3.384 11.448c-.672003 2.2560113-1.151999 3.384-1.44 3.384-.336002 0-.695998-.5759942-1.08-1.728-1.392007-4.3680218-5.327968-15.2639129-11.808-32.688l-2.88-7.704c.048.9120046.072 2.1599921.072 3.744v23.4c0 8.7840439.071999 13.2239995.216 13.32.336002.6240031 1.48799.936 3.456.936 1.584008 0 2.376.2159978 2.376.648 0 .4800024-.503995.72-1.512.72-.624003 0-1.199997-.0239998-1.728-.072-.672003-.0480002-1.271997-.072-1.8-.072l-8.28.216c-.864004 0-1.296-.2159978-1.296-.648 0-.4800024 1.367986-.7439998 4.104-.792 1.152006 0 1.823999-.1919981 2.016-.576.192001-.3840019.288-1.6319894.288-3.744V34.824c0-3.9840199-.048-6.1439983-.144-6.48-.192001-.6720034-.599997-1.1279988-1.224-1.368-.624003-.2400012-1.96799-.4319993-4.032-.576-.768004-.0480002-1.152-.2639981-1.152-.648 0-.5280026.695993-.792 2.088-.792.192001 0 .599997.0239998 1.224.072h3.744c2.832014 0 4.823994-.0239998 5.976-.072.240001.6240031 1.655987 4.3919654 4.248 11.304 1.104005 2.8800144 4.199974 11.2799304 9.288 25.2.912004-3.1200156 1.847995-6.1919849 2.808-9.216l7.632-23.832c.432002-1.392007.815998-2.5439954 1.152-3.456l10.8-.072c1.584008 0 2.495999.0719993 2.736.216.240001.1440007.36.3599986.36.648 0 .4800024-.407996.72-1.224.72-1.344007 0-2.255998.0479995-2.736.144-1.152006.192001-1.943998.5759971-2.376 1.152-.240001.3360017-.36 3.1439736-.36 8.424v33.48c0 1.9200096.191998 3.0479983.576 3.384.624003.4320022 2.183987.648 4.68.648h.432c.960005 0 1.44.2399976 1.44.72zM20.956 4.872c0 .21600108-.203998.30000024-.612.252-.6720034.02400012-1.1279988.10199934-1.368.234-.2400012.13200066-.4439992.41399784-.612.846l-.216.576c-1.3440067 3.408017-3.0479897 7.9559716-5.112 13.644-.192001.600003-.383999.9-.576.9-.192001 0-.383999-.2759972-.576-.828-.9600048-2.6400132-2.36399076-6.3359762-4.212-11.088-.2400012-.62400312-.58799772-1.55999376-1.044-2.808-.26400132-.74400372-.50999886-1.18199934-.738-1.314-.22800114-.13200066-.80999532-.198-1.746-.198-.26400132 0-.396-.07199928-.396-.216 0-.21600108.16799832-.324.504-.324.50400252 0 .9659979.01199988 1.386.036.4200021.02400012 1.21799412.036 2.394.036.21600108 0 .58799736-.01199988 1.116-.036h2.124c.6240031 0 .936.09599904.936.288 0 .16800084-.1799982.27599976-.54.324h-.54l-.792.036c-.74400372.02400012-1.116.11999916-1.116.288 0 .09600048.62399376 1.77598368 1.872 5.04.0480002.0960005.7919928 2.0999804 2.232 6.012.1680008-.4560023.6719958-1.7759891 1.512-3.96l1.512-3.96c.6960035-1.77600888 1.044-2.80799856 1.044-3.096 0-.2400012-.203998-.37199988-.612-.396l-.828-.036h-.576c-.192001 0-.288-.0599994-.288-.18 0-.21600108.3479965-.324 1.044-.324h1.728c.4560023.02400012.7199996.036.792.036.1200006 0 .3479983-.01199988.684-.036h1.08c.3600018 0 .54.08399916.54.252zm7.5705 15.912c0 .1440007-.1079989.216-.324.216h-.36l-.756-.036h-.936c-.192001 0-.3959989-.0119999-.612-.036h-.396c-.2400012 0-.6899967.0119999-1.35.036-.6600033.0240001-1.1579983.036-1.494.036h-.144c-.4080021 0-.612-.0719993-.612-.216 0-.192001.2639973-.2999999.792-.324.7200036-.0480002 1.0979998-.1319994 1.134-.252.0360002-.1200006.054-.6359954.054-1.548V7.068c0-.93600468-.0239998-1.48199922-.072-1.638-.0480003-.15600078-.2279985-.24599988-.54-.27l-.72-.036h-.36c-.2160011 0-.324-.08399916-.324-.252 0-.16800084.1559984-.252.468-.252h.216c.1680008.02400012.4319982.036.792.036h2.592c.1440007 0 .3599985-.01199988.648-.036h1.692c.3840019 0 .576.09599904.576.288 0 .14400072-.4079959.22799988-1.224.252-.3360017 0-.5399997.05399946-.612.162-.0720004.10800054-.108.43799724-.108.99v13.572c0 .2400012.0899991.3959996.27.468.1800009.0720004.6059966.1319998 1.278.18.2880014.0240001.432.1079993.432.252zm13.3305-4.392c0 1.3440067-.5759943 2.4959952-1.728 3.456-1.1520058.9600048-2.5439919 1.44-4.176 1.44-1.2240061 0-2.4839935-.3839962-3.78-1.152-.1440007-.0480002-.2399998-.072-.288-.072-.1440007 0-.2279999.1199988-.252.36-.0240001.2400012-.0599998.4499991-.108.63-.0480003.1800009-.1679991.27-.36.27-.2400012 0-.36-.1199988-.36-.36 0-.0480002.0359996-.4079966.108-1.08.0720003-.6720034.108-1.2479976.108-1.728 0-.2160011-.0119999-.521998-.036-.918-.0240001-.396002-.036-.7019989-.036-.918 0-.4560023.1199988-.684.36-.684.2400012 0 .4199994.3719963.54 1.116.4560023 2.6400132 1.8719881 3.96 4.248 3.96 2.0160101 0 3.024-1.0079899 3.024-3.024 0-.8880044-.2399976-1.6079972-.72-2.16-.4800024-.5520028-1.4159931-1.1759965-2.808-1.872-1.8240091-.9120046-2.9879975-1.6319974-3.492-2.16-.6480033-.6960035-.972-1.55999484-.972-2.592 0-1.3200066.4799952-2.40599574 1.44-3.258.9600048-.85200426 2.1719927-1.278 3.636-1.278.9120045 0 1.8839948.27599724 2.916.828.1200006.07200036.2159996.108.288.108.1680008 0 .2759997-.17399826.324-.522.0480002-.34800174.1919988-.522.432-.522s.36.1199988.36.36c0 .04800024-.0119999.14399928-.036.288-.0480003.38400192-.072.875997-.072 1.476 0 .3600018.0359996 1.00799532.108 1.944.0240001.09600048.036.2039994.036.324 0 .28800144-.0959991.432-.288.432-.2160011 0-.3719995-.21599784-.468-.648-.2160011-1.05600528-.6539967-1.90199682-1.314-2.538-.6600033-.63600318-1.4339956-.954-2.322-.954-1.7280087 0-2.592.92399076-2.592 2.772 0 .81600408.2279977 1.48799736.684 2.016.2400012.2880014.5039985.5159992.792.684.2880014.1680008 1.127993.5879966 2.52 1.26 1.5600078.7680038 2.6639967 1.5059965 3.312 2.214.6480032.7080035.972 1.5419952.972 2.502zm8.8665 4.392c0 .1440007-.107999.216-.324.216h-.36l-.756-.036h-.936c-.192001 0-.395999-.0119999-.612-.036h-.396c-.2400012 0-.6899967.0119999-1.35.036-.6600033.0240001-1.1579984.036-1.494.036h-.144c-.4080021 0-.612-.0719993-.612-.216 0-.192001.2639973-.2999999.792-.324.7200036-.0480002 1.0979998-.1319994 1.134-.252.0360001-.1200006.054-.6359954.054-1.548V7.068c0-.93600468-.0239998-1.48199922-.072-1.638-.0480003-.15600078-.2279985-.24599988-.54-.27l-.72-.036h-.36c-.2160011 0-.324-.08399916-.324-.252 0-.16800084.1559984-.252.468-.252h.216c.1680008.02400012.4319982.036.792.036h2.592c.1440007 0 .3599985-.01199988.648-.036h1.692c.3840019 0 .576.09599904.576.288 0 .14400072-.407996.22799988-1.224.252-.3360017 0-.5399997.05399946-.612.162-.0720004.10800054-.108.43799724-.108.99v13.572c0 .2400012.0899991.3959996.27.468.1800009.0720004.6059966.1319998 1.278.18.2880014.0240001.432.1079993.432.252zM66.646 9.12c0 .33600168-.1439986.504-.432.504-.3120016 0-.4799999-.22799772-.504-.684-.0720004-.98400492-.2759984-1.78799688-.612-2.412-.4560023-.86400432-1.4999919-1.296-3.132-1.296-.2400012 0-.6119975.01199988-1.116.036V19.74c0 .4560023.3479965.6959999 1.044.72.6960034.0240001 1.044.1199992 1.044.288 0 .1680008-.203998.252-.612.252h-.252c-.2160011 0-.5519978-.0119999-1.008-.036h-1.8c-.5040026.0240001-1.1519961.036-1.944.036h-.864c-.4800024 0-.72-.0839992-.72-.252s.395996-.2639999 1.188-.288c.2880014 0 .4799995-.0239998.576-.072.1920009-.0480002.2999998-.173999.324-.378.0240001-.204001.036-.809995.036-1.818V5.268c-1.8720094-.02400012-3.0899972.16799796-3.654.576-.5640029.40800204-.9419991 1.36799244-1.134 2.88-.0720004.55200276-.2279988.828-.468.828-.2160011 0-.324-.27599724-.324-.828 0-.69600348.1079989-2.0639898.324-4.104l8.388.072c.7440037 0 2.2559886-.02399976 4.536-.072.1920009 0 .4439984-.04799952.756-.144l.036.756.108 1.296.108 1.512.072.648c.0240001.21600108.036.35999964.036.432zm15.1664999 7.992c0 .0240001-.0119998.1739986-.036.45-.0240001.2760014-.036.5219989-.036.738l-.036 2.052c0 .2400012.0119999.5039986.036.792l-5.976-.108-6.84.036c-.5040025 0-.756-.0839992-.756-.252 0-.192001.1439986-.288.432-.288.7680039 0 1.2179994-.0539995 1.35-.162.1320007-.1080005.198-.4979966.198-1.17V6.816c0-.98400492-.0839991-1.5059997-.252-1.566-.1680008-.0600003-.5879966-.09-1.26-.09-.2880014 0-.432-.08399916-.432-.252 0-.19200096.1559985-.288.468-.288h1.584l.396.036h.9c.1200006 0 .7199946-.01199988 1.8-.036h6.084c.6240032 0 1.139998-.02399976 1.548-.072V4.8l.036.54c.0480003.3600018.1439993 1.439991.288 3.24.0240002.1200006.036.26399916.036.432 0 .31200156-.0839991.468-.252.468-.216001 0-.3719995-.2399976-.468-.72-.3360016-1.82400912-.9719953-2.89199844-1.908-3.204-.5280026-.16800084-1.7759901-.252-3.744-.252h-1.836v6.732h.864c1.5360077 0 2.4839982-.1259987 2.844-.378.3600018-.2520013.5999994-.9419944.72-2.07.0720004-.67200336.215999-1.008.432-1.008.2400012 0 .36.2399976.36.72 0 .28800144-.0179998.731997-.054 1.332-.0360001.600003-.054 1.0559984-.054 1.368 0 1.5600078.0359997 2.6279971.108 3.204.0240002.192001.036.3479994.036.468 0 .3840019-.1199988.576-.36.576-.216001 0-.3599996-.299997-.432-.9-.1440007-1.2960065-.3839983-2.0699987-.72-2.322-.3360016-.2520013-1.2839922-.378-2.844-.378h-.9v7.776c3.5280177-.0240001 5.6039969-.1199992 6.228-.288.9600048-.2640013 1.5239992-1.4159898 1.692-3.456.0240002-.3600018.1559988-.54.396-.54.2400012 0 .36.3239968.36.972zM181.368 88.872c0 .3520018-.123999.6519988-.372.9-.248001.2480012-.547998.372-.9.372-.368002 0-.675999-.1239988-.924-.372-.248001-.2480012-.372-.5559982-.372-.924 0-.3520018.123999-.6519988.372-.9.248001-.2480012.555998-.372.924-.372.352002 0 .651999.1239988.9.372.248001.2480012.372.5559982.372.924zm12.247-2.448c0 .0480002-.008.1839989-.024.408-.064.8640043-.096 1.4719982-.096 1.824 0 .2400012.024.5919977.072 1.056v.168c0 .1600008-.063999.24-.192.24s-.255999-.1359986-.384-.408l-.216-.456-.072-.144c-.720004.7200036-1.711994 1.08-2.976 1.08-1.616008 0-2.959995-.5399946-4.032-1.62-1.072005-1.0800054-1.608-2.4359918-1.608-4.068 0-1.6320082.495995-2.9719948 1.488-4.02.992005-1.0480052 2.255992-1.572 3.792-1.572 1.200006 0 2.207996.3119969 3.024.936.064.0640003.128.096.192.096.08 0 .152-.103999.216-.312.112001-.3520018.247999-.528.408-.528.112001 0 .168.0639994.168.192 0 .0160001-.016.0879994-.048.216-.096.5440027-.152 1.3519946-.168 2.424-.016.6720034-.103999 1.008-.264 1.008-.128001 0-.216-.1199988-.264-.36-.160001-.8640043-.351999-1.5039979-.576-1.92-.512003-.9120046-1.351994-1.368-2.52-1.368-.976005 0-1.751997.4719953-2.328 1.416-.576003.9440047-.864 2.2239919-.864 3.84 0 1.6160081.319997 2.8959953.96 3.84.640003.9440047 1.503995 1.416 2.592 1.416.832004 0 1.523997-.2839972 2.076-.852.552003-.5680028.915999-1.355995 1.092-2.364.08-.4160021.183999-.624.312-.624.160001 0 .24.1519985.24.456zm12.367-1.8c0 1.5520078-.503995 2.8679946-1.512 3.948-1.008005 1.0800054-2.239993 1.62-3.696 1.62-1.552008 0-2.859995-.5479945-3.924-1.644-1.064005-1.0960055-1.596-2.4359921-1.596-4.02 0-1.6480082.507995-2.9959948 1.524-4.044 1.016005-1.0480052 2.315992-1.572 3.9-1.572 1.504007 0 2.763995.5479945 3.78 1.644 1.016005 1.0960055 1.524 2.4519919 1.524 4.068zm-2.256.072c0-1.8560093-.375996-3.3199946-1.128-4.392-.480002-.6880034-1.143996-1.032-1.992-1.032-1.168006 0-2.015997.6399936-2.544 1.92-.368002.8960045-.552 2.0319931-.552 3.408 0 1.6480082.287997 2.9359954.864 3.864s1.375995 1.392 2.4 1.392c1.96801 0 2.952-1.7199828 2.952-5.16zm16.111 5.136c0 .1280006-.143999.192-.432.192h-.24c-.224001-.0160001-.583998-.024-1.08-.024h-.84c-.240001 0-.551998.0079999-.936.024h-1.176c-.288001 0-.432-.0639994-.432-.192 0-.0800004.036-.1279999.108-.144.072-.0160001.339998-.0319999.804-.048.336002-.0160001.532-.0639996.588-.144.056-.0800004.084-.3759974.084-.888v-7.704c-.288001.800004-.751997 2.1199908-1.392 3.96-.368002 1.1040055-.831997 2.5279913-1.392 4.272-.160001.4960025-.288.744-.384.744-.128001 0-.263999-.2159978-.408-.648-.368002-1.1040055-1.447991-3.8399782-3.24-8.208v8.208c0 .208001.079999.3359998.24.384.224001.0160001.511998.024.864.024.208001 0 .312.0559994.312.168 0 .1280006-.159998.192-.48.192h-.336c-.144001-.0160001-.311999-.024-.504-.024l-1.368.024c-.144001.0160001-.319999.024-.528.024-.240001 0-.36-.0639994-.36-.192 0-.1120006.255997-.1759999.768-.192.352002-.0160001.556-.0599996.612-.132.056-.0720004.084-.3319978.084-.78v-8.136c0-.5440027-.052-.8639995-.156-.96-.104001-.0960005-.451997-.1519999-1.044-.168-.208001 0-.312-.0639994-.312-.192 0-.0960005.135999-.1519999.408-.168.272001-.0160001 1.231992-.024 2.88-.024l.096.264c.08.1760009.183999.4239984.312.744l.576 1.44c.160001.400002.431998 1.0719953.816 2.016l1.272 3.144c.240001-.7680038.423999-1.3359982.552-1.704l2.064-5.904h1.824l1.056-.024c.416002-.0160001.624.0559992.624.216 0 .1280006-.151999.1999999-.456.216-.416002.0160001-.664.0319999-.744.048-.224001.0800004-.336.2559986-.336.528v8.472c0 .6400032.055999.9839998.168 1.032.112001.0480002.479997.072 1.104.072.240001 0 .36.0639994.36.192zm4.783-.96c0 .3520018-.123999.6519988-.372.9-.248001.2480012-.547998.372-.9.372-.368002 0-.675999-.1239988-.924-.372-.248001-.2480012-.372-.5559982-.372-.924 0-.3520018.123999-.6519988.372-.9.248001-.2480012.555998-.372.924-.372.352002 0 .651999.1239988.9.372.248001.2480012.372.5559982.372.924zm11.359-1.728c0 .7360037-.267997 1.3439976-.804 1.824-.536003.4800024-1.275995.7919993-2.22.936-.560003.0800004-1.79999.12-3.72.12-.848004 0-1.335999-.0079999-1.464-.024h-.048l-.336.024c-.112001.0160001-.168-.0399994-.168-.168 0-.0960005.032-.1519999.096-.168.064-.0160001.255998-.024.576-.024.320002 0 .504-.0319997.552-.096.048-.0640003.072-.2639983.072-.6v-8.664c0-.4160021-.024-.6599996-.072-.732-.048-.0720004-.303998-.1159999-.768-.132-.336002-.0160001-.504-.0719995-.504-.168 0-.1280006.175998-.192.528-.192h.408c.176001 0 .647996.0079999 1.416.024l1.152.024c1.104005.0160001 1.799998.0399998 2.088.072.384002.0320002.735998.1039994 1.056.216 1.152006.4160021 1.728 1.1439948 1.728 2.184 0 1.4560073-1.119989 2.3199986-3.36 2.592l.024.072c1.168006.0160001 2.087997.2839974 2.76.804.672003.5200026 1.008 1.2119957 1.008 2.076zm-2.592-5.4c0-1.0560053-.239998-1.7199986-.72-1.992-.272001-.1600008-.727997-.24-1.368-.24-.272001 0-.471999.0079999-.6.024l-.192.024v4.464c.864004-.0160001 1.455998-.0959993 1.776-.24.736004-.3360017 1.104-1.0159949 1.104-2.04zm.504 5.208c0-1.6960085-.95999-2.544-2.88-2.544h-.504v4.824c0 .192001.04.3079998.12.348.08.0400002.311998.06.696.06 1.712008 0 2.568-.895991 2.568-2.688zm13.591 2.472c0 .5120026-.447996.768-1.344.768-.864004 0-1.567997-.3279967-2.112-.984-.240001-.2880014-.4-.5759986-.48-.864-.080001-.2880014-.176-.9679946-.288-2.04-.080001-.6880034-.299998-1.1679986-.66-1.44-.360002-.2720014-.979996-.4239998-1.86-.456v4.944c-.048.2240011.359996.336 1.224.336.176001 0 .264.0559994.264.168s-.111999.168-.336.168c-.176001 0-.343999-.0079999-.504-.024h-.84c-.352002 0-.775998.0079999-1.272.024h-1.248c-.448002 0-.672-.0559994-.672-.168 0-.1280006.079999-.192.24-.192.048 0 .127999.0079999.24.024h.096c.544003 0 .816-.1119989.816-.336v-9.48c0-.1760009-.044-.2919997-.132-.348-.088001-.0560003-.319998-.084-.696-.084-.376002 0-.564-.0639994-.564-.192 0-.1120006.111999-.168.336-.168h.168c.256001.0320002 1.015994.048 2.28.048.528003 0 .959998-.0079999 1.296-.024s.599999-.024.792-.024c1.072005 0 1.931997.2199978 2.58.66.648003.4400022.972 1.0199964.972 1.74 0 .7840039-.343997 1.4199976-1.032 1.908-.688004.4880024-1.655994.7719996-2.904.852 1.344007.1440007 2.267997.4959972 2.772 1.056.504002.5600028.827999 1.5679927.972 3.024.096.992005.391997 1.488.888 1.488.08 0 .12-.0239998.12-.072 0-.0160001-.02-.0679996-.06-.156-.04-.0880004-.06-.1559998-.06-.204 0-.3040015.159998-.456.48-.456.352002 0 .528.1679983.528.504zm-3.792-7.8c0-1.4400072-.711993-2.16-2.136-2.16-.368002 0-.596.0359996-.684.108-.088001.0720004-.132.2439986-.132.516v3.936c1.96801 0 2.952-.799992 2.952-2.4z"/>
      </g>
    </svg>